<svg width="128" height="128" viewBox="0 0 128 128" fill="none" xmlns="http://www.w3.org/2000/svg">
<path d="M112 32H101.333V64.5333C107.733 65.6 113.067 68.2666 117.333 72V37.3333C117.333 34.6666 114.667 32 112 32ZM32 90.6666C32 93.3333 34.6666 96 37.3333 96H64C64 90.1333 65.6 84.8 68.2666 80H32V90.6666ZM85.3333 10.6666H16C13.3333 10.6666 10.6666 13.3333 10.6666 16V90.6666L32 69.3333H78.4C82.1333 66.6666 86.4 65.0666 90.6666 64.5333V16C90.6666 13.3333 88 10.6666 85.3333 10.6666ZM80 58.6666H27.7333L21.3333 65.0666V21.3333H80V58.6666ZM90.6666 74.6666H101.333V90.6666H117.333V101.333H101.333V117.333H90.6666V101.333H74.6666V90.6666H90.6666V74.6666Z" fill="#0B2A46"/>
</svg>
