<svg width="128" height="128" viewBox="0 0 128 128" fill="none" xmlns="http://www.w3.org/2000/svg">
<path d="M37.3333 32V26.6666C37.3333 19.1253 37.3333 15.3546 39.68 13.0133C42.016 10.6666 45.7866 10.6666 53.3333 10.6666H74.6666C82.208 10.6666 85.9786 10.6666 88.32 13.0133C90.6666 15.3493 90.6666 19.12 90.6666 26.6666V32C90.6666 39.5413 90.6666 43.312 88.32 45.6533C85.984 48 82.2133 48 74.6666 48H69.3333L53.3333 58.6666V48C45.792 48 42.0213 48 39.68 45.6533C37.3333 43.3173 37.3333 39.5466 37.3333 32ZM19.1466 99.9466C15.792 102.197 7.00262 106.784 12.3573 112.523C14.9706 115.328 17.888 117.333 21.5466 117.333H42.4533C46.112 117.333 49.0293 115.328 51.6426 112.523C56.9973 106.784 48.208 102.197 44.8533 99.952C41.0614 97.3771 36.5835 96.0004 32 96.0004C27.4164 96.0004 22.9385 97.3717 19.1466 99.9466ZM83.1466 99.9466C79.792 102.197 71.0026 106.784 76.3573 112.523C78.9706 115.328 81.888 117.333 85.5466 117.333H106.453C110.112 117.333 113.029 115.328 115.643 112.523C120.997 106.784 112.208 102.197 108.853 99.952C105.061 97.3771 100.583 96.0004 96 96.0004C91.4164 96.0004 86.9385 97.3717 83.1466 99.9466ZM42.6666 72C42.6666 74.8289 41.5428 77.542 39.5424 79.5424C37.542 81.5428 34.8289 82.6666 32 82.6666C29.171 82.6666 26.4579 81.5428 24.4575 79.5424C22.4571 77.542 21.3333 74.8289 21.3333 72C21.3333 69.171 22.4571 66.4579 24.4575 64.4575C26.4579 62.4571 29.171 61.3333 32 61.3333C34.8289 61.3333 37.542 62.4571 39.5424 64.4575C41.5428 66.4579 42.6666 69.171 42.6666 72ZM106.667 72C106.667 74.8289 105.543 77.542 103.542 79.5424C101.542 81.5428 98.8289 82.6666 96 82.6666C93.171 82.6666 90.4579 81.5428 88.4575 79.5424C86.4571 77.542 85.3333 74.8289 85.3333 72C85.3333 69.171 86.4571 66.4579 88.4575 64.4575C90.4579 62.4571 93.171 61.3333 96 61.3333C98.8289 61.3333 101.542 62.4571 103.542 64.4575C105.543 66.4579 106.667 69.171 106.667 72Z" stroke="#E94A1B" stroke-opacity="0.82" stroke-width="8" stroke-linecap="round" stroke-linejoin="round"/>
</svg>
