<svg width="48" height="48" viewBox="0 0 48 48" fill="none" xmlns="http://www.w3.org/2000/svg">
<g clip-path="url(#clip0_292_336)">
<path d="M0 6C0 4.4087 0.632141 2.88258 1.75736 1.75736C2.88258 0.632141 4.4087 0 6 0L42 0C43.5913 0 45.1174 0.632141 46.2426 1.75736C47.3679 2.88258 48 4.4087 48 6V42C48 43.5913 47.3679 45.1174 46.2426 46.2426C45.1174 47.3679 43.5913 48 42 48H6C4.4087 48 2.88258 47.3679 1.75736 46.2426C0.632141 45.1174 0 43.5913 0 42V6ZM45 12H33V21H45V12ZM45 24H33V33H45V24ZM45 36H33V45H42C42.7957 45 43.5587 44.6839 44.1213 44.1213C44.6839 43.5587 45 42.7957 45 42V36ZM30 45V36H18V45H30ZM15 45V36H3V42C3 42.7957 3.31607 43.5587 3.87868 44.1213C4.44129 44.6839 5.20435 45 6 45H15ZM3 33H15V24H3V33ZM3 21H15V12H3V21ZM18 12V21H30V12H18ZM30 24H18V33H30V24Z" fill="#E94A1B"/>
</g>
<defs>
<clipPath id="clip0_292_336">
<rect width="48" height="48" fill="white"/>
</clipPath>
</defs>
</svg>
