<svg width="48" height="48" viewBox="0 0 48 48" fill="none" xmlns="http://www.w3.org/2000/svg">
<g clip-path="url(#clip0_292_340)">
<path fill-rule="evenodd" clip-rule="evenodd" d="M6 46.5V6C6 4.4087 6.63214 2.88258 7.75736 1.75736C8.88258 0.632141 10.4087 0 12 0L36 0C37.5913 0 39.1174 0.632141 40.2426 1.75736C41.3679 2.88258 42 4.4087 42 6V46.5C42.0002 46.7605 41.9325 47.0165 41.8037 47.2429C41.6749 47.4693 41.4894 47.6583 41.2653 47.7912C41.0413 47.9241 40.7865 47.9963 40.5261 48.0009C40.2656 48.0054 40.0085 47.942 39.78 47.817L24 39.207L8.22 47.817C7.99149 47.942 7.73436 48.0054 7.47391 48.0009C7.21347 47.9963 6.9587 47.9241 6.73468 47.7912C6.51065 47.6583 6.32509 47.4693 6.19627 47.2429C6.06745 47.0165 5.99981 46.7605 6 46.5ZM32.562 17.562C32.8437 17.2803 33.0019 16.8983 33.0019 16.5C33.0019 16.1017 32.8437 15.7197 32.562 15.438C32.2803 15.1563 31.8983 14.9981 31.5 14.9981C31.1017 14.9981 30.7197 15.1563 30.438 15.438L22.5 23.379L19.062 19.938C18.9225 19.7985 18.757 19.6879 18.5748 19.6124C18.3925 19.537 18.1972 19.4981 18 19.4981C17.8028 19.4981 17.6075 19.537 17.4253 19.6124C17.243 19.6879 17.0775 19.7985 16.938 19.938C16.7985 20.0775 16.6879 20.243 16.6124 20.4252C16.537 20.6075 16.4981 20.8028 16.4981 21C16.4981 21.1972 16.537 21.3925 16.6124 21.5748C16.6879 21.757 16.7985 21.9225 16.938 22.062L21.438 26.562C21.5773 26.7017 21.7429 26.8125 21.9251 26.8881C22.1073 26.9638 22.3027 27.0027 22.5 27.0027C22.6973 27.0027 22.8927 26.9638 23.0749 26.8881C23.2571 26.8125 23.4227 26.7017 23.562 26.562L32.562 17.562Z" fill="#E94A1B"/>
</g>
<defs>
<clipPath id="clip0_292_340">
<rect width="48" height="48" fill="white"/>
</clipPath>
</defs>
</svg>
