<svg width="48" height="48" viewBox="0 0 48 48" fill="none" xmlns="http://www.w3.org/2000/svg">
<g clip-path="url(#clip0_292_342)">
<path d="M33.528 43.2869C25.533 43.2869 19.05 37.8869 19.05 31.2329C19.05 24.5729 25.527 19.1729 33.522 19.1729C41.517 19.1729 48 24.5729 48 31.2329C48 34.8629 46.05 38.1359 43.002 40.3409C42.831 40.46 42.7033 40.6315 42.6384 40.8296C42.5734 41.0277 42.5747 41.2416 42.642 41.4389L43.2961 43.8689C43.3368 43.9826 43.3659 44.1002 43.383 44.2199C43.38 44.3478 43.3278 44.4696 43.2373 44.5601C43.1468 44.6506 43.025 44.7028 42.897 44.7059C42.7991 44.6989 42.7043 44.668 42.621 44.6159L39.45 42.7859C39.2188 42.6437 38.9534 42.567 38.682 42.5639C38.5378 42.5643 38.3943 42.5855 38.256 42.6269C36.7187 43.0668 35.1272 43.289 33.528 43.2869ZM27.192 28.6259C27.3746 28.906 27.6264 29.1343 27.9231 29.2885C28.2198 29.4428 28.5513 29.5177 28.8855 29.5062C29.2197 29.4946 29.5453 29.3969 29.8306 29.2225C30.1159 29.0481 30.3513 28.803 30.5141 28.5108C30.6768 28.2187 30.7613 27.8895 30.7593 27.5551C30.7574 27.2207 30.6691 26.8925 30.503 26.6023C30.3369 26.312 30.0987 26.0696 29.8113 25.8986C29.524 25.7275 29.1974 25.6335 28.8631 25.6259C28.6082 25.6255 28.3557 25.6754 28.1202 25.7729C27.8847 25.8703 27.6708 26.0133 27.4907 26.1937C27.3107 26.374 27.168 26.5882 27.0709 26.8238C26.9738 27.0595 26.9243 27.312 26.9251 27.5669C26.9031 27.9393 26.9945 28.3094 27.192 28.6259ZM36.888 28.6289C37.0715 28.9089 37.3245 29.1367 37.6222 29.2899C37.9199 29.4432 38.2523 29.5166 38.5868 29.5032C38.9214 29.4898 39.2468 29.3899 39.5313 29.2133C39.8158 29.0367 40.0496 28.7894 40.2101 28.4955C40.3705 28.2016 40.4521 27.8712 40.4469 27.5364C40.4416 27.2016 40.3497 26.8738 40.1801 26.5851C40.0105 26.2964 39.769 26.0566 39.4791 25.889C39.1892 25.7214 38.8609 25.6318 38.526 25.6289C38.0139 25.6296 37.5229 25.8335 37.1608 26.1956C36.7986 26.5577 36.5948 27.0487 36.594 27.5609C36.5832 27.9382 36.6856 28.3102 36.888 28.6289Z" fill="#E94A1B"/>
<path d="M0 20.478C0 24.843 2.343 28.773 6.003 31.446C6.20727 31.5896 6.35948 31.7956 6.43682 32.0331C6.51417 32.2705 6.51247 32.5266 6.432 32.763L5.949 34.563L5.649 35.682C5.59696 35.8167 5.56462 35.9581 5.553 36.102C5.55178 36.1784 5.56593 36.2542 5.5946 36.325C5.62326 36.3958 5.66587 36.4601 5.71988 36.5141C5.77389 36.5681 5.8382 36.6107 5.909 36.6394C5.97979 36.6681 6.05563 36.6822 6.132 36.681C6.252 36.681 6.363 36.652 6.465 36.594L10.269 34.395C10.5474 34.2249 10.8668 34.1336 11.193 34.131C11.369 34.131 11.54 34.156 11.706 34.206C13.2934 34.6624 14.9304 34.9243 16.581 34.986C16.2284 33.7662 16.0496 32.5027 16.05 31.233C16.05 22.425 24.405 16.173 33.522 16.173L33.972 16.179C31.761 10.287 25.176 6 17.388 6C7.788 6 0 12.48 0 20.478ZM13.896 15.813C13.896 16.4256 13.6526 17.0132 13.2194 17.4464C12.7862 17.8796 12.1987 18.123 11.586 18.123C10.9733 18.123 10.3858 17.8796 9.95258 17.4464C9.51937 17.0132 9.276 16.4256 9.276 15.813C9.276 15.2003 9.51937 14.6128 9.95258 14.1796C10.3858 13.7464 10.9733 13.503 11.586 13.503C12.1987 13.503 12.7862 13.7464 13.2194 14.1796C13.6526 14.6128 13.896 15.2003 13.896 15.813ZM25.521 15.813C25.521 16.4256 25.2776 17.0132 24.8444 17.4464C24.4112 17.8796 23.8237 18.123 23.211 18.123C22.5984 18.123 22.0108 17.8796 21.5776 17.4464C21.1444 17.0132 20.901 16.4256 20.901 15.813C20.901 15.2003 21.1444 14.6128 21.5776 14.1796C22.0108 13.7464 22.5984 13.503 23.211 13.503C23.8237 13.503 24.4112 13.7464 24.8444 14.1796C25.2776 14.6128 25.521 15.2003 25.521 15.813Z" fill="#E94A1B"/>
</g>
<defs>
<clipPath id="clip0_292_342">
<rect width="48" height="48" fill="white"/>
</clipPath>
</defs>
</svg>
