<svg width="26" height="26" viewBox="0 0 26 26" fill="none" xmlns="http://www.w3.org/2000/svg">
<path fill-rule="evenodd" clip-rule="evenodd" d="M21.1196 3.39403C21.3596 3.24963 21.6463 3.20383 21.9194 3.26625C22.1925 3.32866 22.4307 3.49444 22.5842 3.72878L23.6567 5.36461C23.7965 5.57831 23.8564 5.83453 23.8256 6.08805C23.7949 6.34157 23.6756 6.57608 23.4888 6.7502L23.4856 6.75453L23.4704 6.76861L23.4087 6.82603L23.1649 7.05895C21.8162 8.36725 20.5084 9.717 19.2432 11.1063C16.8632 13.7236 14.0367 17.1491 12.1344 20.4728C11.6036 21.4001 10.3068 21.5994 9.53765 20.7989L2.51224 13.4994C2.41156 13.3947 2.33295 13.2709 2.28107 13.1353C2.2292 12.9996 2.20512 12.8549 2.21028 12.7098C2.21543 12.5647 2.24971 12.4221 2.31107 12.2905C2.37244 12.1589 2.45964 12.0409 2.56749 11.9437L4.69082 10.0284C4.87742 9.86013 5.11668 9.76199 5.36766 9.75072C5.61864 9.73946 5.86574 9.81577 6.06665 9.96661L9.6514 12.6544C15.2512 7.13261 18.4264 5.01361 21.1196 3.39403ZM21.3471 5.7947C18.8662 7.34603 15.7701 9.59611 10.5159 14.8492C10.3315 15.0336 10.0868 15.1453 9.82675 15.1638C9.56665 15.1823 9.30861 15.1064 9.09999 14.9499L5.47949 12.2351L4.85007 12.8028L10.6102 18.7893C12.61 15.4634 15.3627 12.1528 17.641 9.64811C18.8407 8.33022 20.078 7.04703 21.3514 5.80011L21.3471 5.7947Z" fill="#E94A1B"/>
</svg>
