<svg width="31" height="31" viewBox="0 0 31 31" fill="none" xmlns="http://www.w3.org/2000/svg">
<g clip-path="url(#clip0_311_173)">
<rect width="30.995" height="30.995" rx="15.4975" fill="white"/>
<path d="M30.995 15.4975C30.995 19.6077 29.3623 23.5496 26.4559 26.4559C23.5496 29.3623 19.6077 30.995 15.4975 30.995C11.3873 30.995 7.44546 29.3623 4.53912 26.4559C1.63277 23.5496 0 19.6077 0 15.4975C0 11.3873 1.63277 7.44546 4.53912 4.53912C7.44546 1.63277 11.3873 0 15.4975 0C19.6077 0 23.5496 1.63277 26.4559 4.53912C29.3623 7.44546 30.995 11.3873 30.995 15.4975ZM23.3044 9.62783C23.166 9.48994 23.0012 9.38137 22.82 9.30861C22.6387 9.23585 22.4445 9.2004 22.2492 9.20438C22.0539 9.20836 21.8614 9.25169 21.6832 9.33176C21.5051 9.41184 21.3449 9.52703 21.2122 9.67045L14.4844 18.2425L10.4298 14.186C10.1544 13.9294 9.79012 13.7897 9.41372 13.7963C9.03733 13.803 8.6782 13.9554 8.41201 14.2216C8.14581 14.4878 7.99333 14.847 7.98669 15.2234C7.98005 15.5998 8.11977 15.964 8.3764 16.2395L13.5022 21.3672C13.6403 21.505 13.8047 21.6136 13.9857 21.6865C14.1667 21.7595 14.3605 21.7952 14.5555 21.7915C14.7506 21.7879 14.943 21.7451 15.1211 21.6655C15.2993 21.5859 15.4595 21.4713 15.5924 21.3284L23.3257 11.6619C23.5893 11.3878 23.735 11.0212 23.7314 10.6409C23.7277 10.2606 23.5751 9.89687 23.3063 9.62783H23.3044Z" fill="#43A047"/>
</g>
<defs>
<clipPath id="clip0_311_173">
<rect width="30.995" height="30.995" rx="15.4975" fill="white"/>
</clipPath>
</defs>
</svg>
