<svg width="12" height="12" viewBox="0 0 12 12" fill="none" xmlns="http://www.w3.org/2000/svg">
<path d="M5.00002 1.957V0.25H6.00002V1.957H5.00002ZM3.70702 2.75L2.50002 1.542L1.79302 2.2495L3.00002 3.4565L3.70702 2.75ZM5.50002 2.405C5.20032 2.405 4.9129 2.52405 4.70099 2.73597C4.48907 2.94789 4.37002 3.23531 4.37002 3.535V7.567L3.03152 7.3025C2.84927 7.26667 2.66049 7.28564 2.48901 7.35701C2.31753 7.42838 2.17103 7.54895 2.06802 7.7035L1.59302 8.416L3.74252 11.2115C3.87128 11.3789 4.03674 11.5144 4.22614 11.6078C4.41555 11.7012 4.62385 11.7498 4.83502 11.75H8.37802C8.97152 11.75 9.49802 11.37 9.68552 10.807L10.577 8.132C10.6767 7.83177 10.6702 7.50641 10.5586 7.2104C10.447 6.91439 10.2371 6.66571 9.96402 6.506L8.15152 5.448C7.94057 5.32494 7.70074 5.26007 7.45652 5.26H6.63002V3.535C6.63002 3.38661 6.60079 3.23967 6.544 3.10257C6.48721 2.96547 6.40398 2.8409 6.29905 2.73597C6.19412 2.63104 6.06955 2.5478 5.93245 2.49102C5.79535 2.43423 5.64841 2.405 5.50002 2.405ZM8.50002 1.5425L7.29302 2.7495L8.00002 3.4565L9.20702 2.25L8.50002 1.5425Z" fill="#E54A07"/>
</svg>
