<svg width="128" height="128" viewBox="0 0 128 128" fill="none" xmlns="http://www.w3.org/2000/svg">
<path d="M53.3333 87.9999L69.3333 93.3333C69.3333 93.3333 109.333 85.3333 114.667 85.3333C120 85.3333 120 90.6666 114.667 95.9999C109.333 101.333 90.6666 117.333 74.6666 117.333C58.6666 117.333 48 109.333 37.3333 109.333C26.6666 109.333 10.6666 109.333 10.6666 109.333" stroke="#0B2A46" stroke-width="8" stroke-linecap="round" stroke-linejoin="round"/>
<path d="M10.6666 77.3332C16 71.9999 26.6666 63.9999 37.3333 63.9999C48 63.9999 73.3333 74.6665 77.3333 79.9999C81.3333 85.3332 69.3333 93.3332 69.3333 93.3332" stroke="#0B2A46" stroke-width="8" stroke-linecap="round" stroke-linejoin="round"/>
<path d="M42.6666 47.9999V26.6666C42.6666 23.7211 45.0544 21.3333 48 21.3333H112C114.946 21.3333 117.333 23.7211 117.333 26.6666V69.3333" stroke="#0B2A46" stroke-width="8" stroke-linecap="round" stroke-linejoin="round"/>
<path d="M93.3333 21.3333H66.6666V45.3333H93.3333V21.3333Z" fill="#0B2A46" stroke="#0B2A46" stroke-width="8" stroke-linecap="round" stroke-linejoin="round"/>
</svg>
