<svg width="48" height="48" viewBox="0 0 48 48" fill="none" xmlns="http://www.w3.org/2000/svg">
<path d="M4.5 44.9998C4.10218 44.9998 3.72064 45.1578 3.43934 45.4391C3.15804 45.7204 3 46.1019 3 46.4998C3 46.8976 3.15804 47.2791 3.43934 47.5604C3.72064 47.8417 4.10218 47.9998 4.5 47.9998H43.5C43.8978 47.9998 44.2794 47.8417 44.5607 47.5604C44.842 47.2791 45 46.8976 45 46.4998C45 46.1019 44.842 45.7204 44.5607 45.4391C44.2794 45.1578 43.8978 44.9998 43.5 44.9998H39V7.49977C39 6.3063 38.5259 5.16171 37.682 4.31779C36.8381 3.47388 35.6935 2.99977 34.5 2.99977H33V1.49977C33 1.28507 32.9538 1.07287 32.8647 0.87752C32.7756 0.682173 32.6456 0.508231 32.4835 0.36745C32.3214 0.22667 32.131 0.122331 31.9251 0.0614879C31.7192 0.000644395 31.5026 -0.0152862 31.29 0.0147729L10.29 3.01477C9.93216 3.06537 9.60461 3.24346 9.3676 3.5163C9.13059 3.78914 9.00005 4.13837 9 4.49977V44.9998H4.5ZM33 5.99977H34.5C34.8978 5.99977 35.2794 6.15781 35.5607 6.43911C35.842 6.72042 36 7.10195 36 7.49977V44.9998H33V5.99977ZM25.5 29.9998C24.672 29.9998 24 28.6558 24 26.9998C24 25.3438 24.672 23.9998 25.5 23.9998C26.328 23.9998 27 25.3438 27 26.9998C27 28.6558 26.328 29.9998 25.5 29.9998Z" fill="#F24822"/>
</svg>
