<svg width="48" height="48" viewBox="0 0 48 48" fill="none" xmlns="http://www.w3.org/2000/svg">
<g clip-path="url(#clip0_588_139)">
<path fill-rule="evenodd" clip-rule="evenodd" d="M24 0C20.0407 0.0124155 16.2164 1.44041 13.218 4.026C10.92 6.006 9.255 8.586 8.826 11.175C3.798 12.285 0 16.665 0 21.954C0 28.098 5.124 33 11.343 33H22.5V16.5C22.5 16.1022 22.658 15.7206 22.9393 15.4393C23.2206 15.158 23.6022 15 24 15C24.3978 15 24.7794 15.158 25.0607 15.4393C25.342 15.7206 25.5 16.1022 25.5 16.5V33H38.064C43.506 33 48 28.71 48 23.319C48 18.411 44.274 14.412 39.498 13.737C38.769 5.997 32.07 0 24 0ZM22.938 47.562C23.0773 47.7017 23.2429 47.8125 23.4251 47.8881C23.6073 47.9638 23.8027 48.0027 24 48.0027C24.1973 48.0027 24.3927 47.9638 24.5749 47.8881C24.7571 47.8125 24.9227 47.7017 25.062 47.562L34.062 38.562C34.3437 38.2803 34.5019 37.8983 34.5019 37.5C34.5019 37.1017 34.3437 36.7197 34.062 36.438C33.7803 36.1563 33.3983 35.9981 33 35.9981C32.6017 35.9981 32.2197 36.1563 31.938 36.438L25.5 42.879V33H22.5V42.879L16.062 36.438C15.7803 36.1563 15.3983 35.9981 15 35.9981C14.6017 35.9981 14.2197 36.1563 13.938 36.438C13.6563 36.7197 13.4981 37.1017 13.4981 37.5C13.4981 37.8983 13.6563 38.2803 13.938 38.562L22.938 47.562Z" fill="#F24822"/>
</g>
<defs>
<clipPath id="clip0_588_139">
<rect width="48" height="48" fill="white"/>
</clipPath>
</defs>
</svg>
