<svg width="48" height="48" viewBox="0 0 48 48" fill="none" xmlns="http://www.w3.org/2000/svg">
<g clip-path="url(#clip0_292_338)">
<path d="M18 3V12H3V3H18ZM3 0C2.20435 0 1.44129 0.316071 0.87868 0.87868C0.316071 1.44129 0 2.20435 0 3L0 12C0 12.7956 0.316071 13.5587 0.87868 14.1213C1.44129 14.6839 2.20435 15 3 15H18C18.7956 15 19.5587 14.6839 20.1213 14.1213C20.6839 13.5587 21 12.7956 21 12V3C21 2.20435 20.6839 1.44129 20.1213 0.87868C19.5587 0.316071 18.7956 0 18 0L3 0ZM45 36V45H30V36H45ZM30 33C29.2044 33 28.4413 33.3161 27.8787 33.8787C27.3161 34.4413 27 35.2043 27 36V45C27 45.7957 27.3161 46.5587 27.8787 47.1213C28.4413 47.6839 29.2044 48 30 48H45C45.7957 48 46.5587 47.6839 47.1213 47.1213C47.6839 46.5587 48 45.7957 48 45V36C48 35.2043 47.6839 34.4413 47.1213 33.8787C46.5587 33.3161 45.7957 33 45 33H30ZM18 24V45H3V24H18ZM3 21C2.20435 21 1.44129 21.3161 0.87868 21.8787C0.316071 22.4413 0 23.2044 0 24L0 45C0 45.7957 0.316071 46.5587 0.87868 47.1213C1.44129 47.6839 2.20435 48 3 48H18C18.7956 48 19.5587 47.6839 20.1213 47.1213C20.6839 46.5587 21 45.7957 21 45V24C21 23.2044 20.6839 22.4413 20.1213 21.8787C19.5587 21.3161 18.7956 21 18 21H3ZM45 3V24H30V3H45ZM30 0C29.2044 0 28.4413 0.316071 27.8787 0.87868C27.3161 1.44129 27 2.20435 27 3V24C27 24.7956 27.3161 25.5587 27.8787 26.1213C28.4413 26.6839 29.2044 27 30 27H45C45.7957 27 46.5587 26.6839 47.1213 26.1213C47.6839 25.5587 48 24.7956 48 24V3C48 2.20435 47.6839 1.44129 47.1213 0.87868C46.5587 0.316071 45.7957 0 45 0L30 0Z" fill="#E94A1B"/>
</g>
<defs>
<clipPath id="clip0_292_338">
<rect width="48" height="48" fill="white"/>
</clipPath>
</defs>
</svg>
