<svg width="128" height="128" viewBox="0 0 128 128" fill="none" xmlns="http://www.w3.org/2000/svg">
<path d="M21.3334 58.6667V101.333C21.3334 104.162 22.4572 106.875 24.4576 108.876C26.458 110.876 29.1711 112 32 112H96C98.829 112 101.542 110.876 103.543 108.876C105.543 106.875 106.667 104.162 106.667 101.333V58.6667" stroke="#E94A1B" stroke-opacity="0.82" stroke-width="10.6667" stroke-linecap="round" stroke-linejoin="round"/>
<path d="M64 29.3334C64 24.3827 62.0333 19.6348 58.5327 16.1341C55.032 12.6334 50.284 10.6667 45.3333 10.6667C41.7971 10.6667 38.4057 12.0715 35.9052 14.572C33.4048 17.0725 32 20.4639 32 24.0001C32 27.5363 33.4048 30.9277 35.9052 33.4282C38.4057 35.9287 41.7971 37.3334 45.3333 37.3334H64M64 29.3334V37.3334M64 29.3334C64 24.3827 65.9667 19.6348 69.4673 16.1341C72.968 12.6334 77.716 10.6667 82.6667 10.6667C86.2029 10.6667 89.5943 12.0715 92.0948 14.572C94.5952 17.0725 96 20.4639 96 24.0001C96 25.751 95.6551 27.4849 94.9851 29.1025C94.315 30.7202 93.3329 32.1901 92.0948 33.4282C90.8566 34.6663 89.3868 35.6484 87.7691 36.3185C86.1514 36.9885 84.4176 37.3334 82.6667 37.3334H64" stroke="#E94A1B" stroke-opacity="0.82" stroke-width="10.6667" stroke-linejoin="round"/>
<path d="M64 58.6667V112M16 37.3334H112V58.6667H16V37.3334Z" stroke="#E94A1B" stroke-opacity="0.82" stroke-width="10.6667" stroke-linecap="round" stroke-linejoin="round"/>
</svg>
