<svg width="28" height="28" viewBox="0 0 28 28" fill="none" xmlns="http://www.w3.org/2000/svg">
<path d="M2.85698 14.2536C2.8567 12.3226 3.32841 10.4255 4.2247 8.75303C5.12098 7.08058 6.41026 5.69172 7.96292 4.72607C9.51558 3.76041 11.2769 3.25199 13.0699 3.25192C14.8628 3.25184 16.6242 3.76011 18.1769 4.72564C18.39 4.85615 18.6425 4.89057 18.8791 4.82139C19.1157 4.7522 19.3173 4.58502 19.4399 4.35633C19.5625 4.12765 19.5961 3.85602 19.5334 3.60072C19.4708 3.34543 19.3169 3.12719 19.1054 2.99364C16.8043 1.5628 14.1292 0.989684 11.495 1.36316C8.86068 1.73664 6.41443 3.03584 4.53558 5.05928C2.65673 7.08273 1.45029 9.71733 1.10336 12.5545C0.75642 15.3917 1.28838 18.2729 2.61673 20.7512C3.94509 23.2296 5.99561 25.1667 8.45028 26.262C10.905 27.3573 13.6266 27.5497 16.1931 26.8093C18.7597 26.0689 21.0277 24.4371 22.6454 22.167C24.2631 19.8969 25.1401 17.1153 25.1405 14.2536C25.1405 13.9884 25.0427 13.7341 24.8685 13.5465C24.6944 13.359 24.4583 13.2536 24.212 13.2536C23.9658 13.2536 23.7296 13.359 23.5555 13.5465C23.3814 13.7341 23.2835 13.9884 23.2835 14.2536C23.2835 17.171 22.2075 19.9689 20.2921 22.0318C18.3768 24.0947 15.779 25.2536 13.0703 25.2536C10.3615 25.2536 7.76374 24.0947 5.84838 22.0318C3.93301 19.9689 2.85698 17.171 2.85698 14.2536Z" fill="#E94A1B" stroke="#E94A1B"/>
<path d="M26.7277 4.95926C26.814 4.86629 26.8825 4.75591 26.9292 4.63443C26.9759 4.51295 26.9999 4.38275 26.9999 4.25126C26.9999 4.11977 26.9759 3.98957 26.9292 3.8681C26.8825 3.74662 26.814 3.63624 26.7277 3.54326C26.6413 3.45029 26.5388 3.37653 26.4261 3.32622C26.3133 3.2759 26.1924 3.25 26.0703 3.25C25.9482 3.25 25.8273 3.2759 25.7145 3.32622C25.6017 3.37653 25.4993 3.45029 25.4129 3.54326L13.0716 16.8373L8.15806 11.5433C8.07174 11.4503 7.96925 11.3765 7.85646 11.3262C7.74367 11.2759 7.62278 11.25 7.5007 11.25C7.37861 11.25 7.25773 11.2759 7.14493 11.3262C7.03214 11.3765 6.92966 11.4503 6.84333 11.5433C6.75701 11.6362 6.68853 11.7466 6.64181 11.8681C6.59509 11.9896 6.57104 12.1198 6.57104 12.2513C6.57104 12.3827 6.59509 12.5129 6.64181 12.6344C6.68853 12.7559 6.75701 12.8663 6.84333 12.9593L12.4142 18.9593C12.5005 19.0524 12.6029 19.1263 12.7157 19.1767C12.8285 19.2271 12.9494 19.253 13.0716 19.253C13.1937 19.253 13.3146 19.2271 13.4274 19.1767C13.5402 19.1263 13.6427 19.0524 13.7289 18.9593L26.7277 4.95926Z" fill="#E94A1B" stroke="#E94A1B"/>
</svg>
