<svg width="128" height="128" viewBox="0 0 128 128" fill="none" xmlns="http://www.w3.org/2000/svg">
<path d="M86 33C86 32.45 85.55 32 85 32H37C36.45 32 36 32.45 36 33V39C36 39.55 36.45 40 37 40H85C85.55 40 86 39.55 86 39V33ZM85 50H37C36.45 50 36 50.45 36 51V57C36 57.55 36.45 58 37 58H85C85.55 58 86 57.55 86 57V51C86 50.45 85.55 50 85 50ZM60 68H37C36.45 68 36 68.45 36 69V75C36 75.55 36.45 76 37 76H60C60.55 76 61 75.55 61 75V69C61 68.45 60.55 68 60 68ZM54 106.5H26V18.5H96V61.5C96 62.05 96.45 62.5 97 62.5H104C104.55 62.5 105 62.05 105 61.5V13.5C105 11.2875 103.213 9.5 101 9.5H21C18.7875 9.5 17 11.2875 17 13.5V111.5C17 113.713 18.7875 115.5 21 115.5H54C54.55 115.5 55 115.05 55 114.5V107.5C55 106.95 54.55 106.5 54 106.5ZM98.6 97.2C102.225 93.9125 104.5 89.1625 104.5 83.875C104.5 73.9375 96.4375 65.875 86.5 65.875C76.5625 65.875 68.5 73.9375 68.5 83.875C68.5 89.1625 70.775 93.9125 74.4 97.2C67.275 101.262 62.375 108.788 62 117.463C61.975 118.025 62.4375 118.5 63 118.5H69.0125C69.5375 118.5 69.975 118.088 70.0125 117.55C70.5 108.9 77.7125 102 86.5 102C95.2875 102 102.5 108.9 102.988 117.55C103.013 118.075 103.45 118.5 103.988 118.5H110C110.575 118.5 111.025 118.025 111 117.463C110.637 108.775 105.725 101.262 98.6 97.2ZM86.5 73.875C92.025 73.875 96.5 78.35 96.5 83.875C96.5 89.4 92.025 93.875 86.5 93.875C80.975 93.875 76.5 89.4 76.5 83.875C76.5 78.35 80.975 73.875 86.5 73.875Z" fill="#E94A1B" fill-opacity="0.82"/>
</svg>
