<svg width="48" height="48" viewBox="0 0 48 48" fill="none" xmlns="http://www.w3.org/2000/svg">
<g clip-path="url(#clip0_292_346)">
<path d="M20.43 27.6118C20.43 26.3818 21.021 24.4258 25.611 24.4258C27.018 24.4258 27.885 24.5278 29.049 24.7888C28.677 29.6068 26.319 30.2428 24.027 30.2428C22.773 30.2428 20.43 29.5888 20.43 27.6118Z" fill="#E94A1B"/>
<path d="M7.77 48H40.23C42.2907 48 44.2671 47.1814 45.7242 45.7242C47.1814 44.2671 48 42.2907 48 40.23V7.77C48 5.70927 47.1814 3.73294 45.7242 2.27578C44.2671 0.818623 42.2907 0 40.23 0L7.77 0C5.70927 0 3.73294 0.818623 2.27578 2.27578C0.818623 3.73294 0 5.70927 0 7.77L0 40.23C0 42.2907 0.818623 44.2671 2.27578 45.7242C3.73294 47.1814 5.70927 48 7.77 48ZM17.598 17.73C19.299 15.3 21.543 14.352 24.648 14.352C26.838 14.352 28.701 15.09 30.033 16.485C31.362 17.883 32.121 19.881 32.295 22.434C33.031 22.742 33.709 23.105 34.329 23.523C36.825 25.2 38.199 27.708 38.199 30.582C38.199 36.693 33.189 42 24.123 42C16.338 42 8.25 37.47 8.25 23.988C8.25 10.578 16.083 6 24.099 6C27.801 6 36.486 6.546 39.75 17.331L36.69 18.123C34.164 10.443 28.869 9.219 24.018 9.219C15.993 9.219 11.457 14.103 11.457 24.498C11.457 33.819 16.527 38.769 24.123 38.769C30.372 38.769 35.031 35.523 35.031 30.768C35.031 27.531 32.313 25.983 32.172 25.983C31.641 28.758 30.219 33.429 23.973 33.429C20.334 33.429 17.193 30.915 17.193 27.621C17.193 22.917 21.657 21.213 25.182 21.213C26.502 21.213 28.092 21.303 28.923 21.471C28.923 20.037 27.711 17.583 24.645 17.583C21.912 17.583 21.165 18.447 20.295 19.455L20.223 19.536C19.617 19.131 17.598 17.73 17.598 17.73Z" fill="#E94A1B"/>
</g>
<defs>
<clipPath id="clip0_292_346">
<rect width="48" height="48" fill="white"/>
</clipPath>
</defs>
</svg>
