<svg width="128" height="128" viewBox="0 0 128 128" fill="none" xmlns="http://www.w3.org/2000/svg">
<path d="M64 112C62.4888 112 61.2231 111.488 60.2026 110.464C59.1822 109.44 58.6702 108.174 58.6666 106.667C58.6631 105.159 59.1751 103.893 60.2026 102.869C61.2302 101.845 62.496 101.333 64 101.333H101.333V63.4667C101.333 53.0667 97.712 44.2453 90.4693 37.0027C83.2266 29.76 74.4035 26.1369 64 26.1333C53.5964 26.1298 44.7751 29.7529 37.536 37.0027C30.2968 44.2524 26.6737 53.0738 26.6666 63.4667V90.6667C26.6666 92.1778 26.1546 93.4453 25.1306 94.4693C24.1066 95.4933 22.8408 96.0036 21.3333 96C18.4 96 15.8897 94.9564 13.8026 92.8693C11.7155 90.7822 10.6702 88.2702 10.6666 85.3333V74.6667C10.6666 72.8 11.1342 71.0453 12.0693 69.4027C13.0044 67.76 14.3146 66.448 16 65.4667L16.4 58.4C17.1111 52.3556 18.8675 46.7556 21.6693 41.6C24.4711 36.4444 27.9822 31.9556 32.2026 28.1333C36.4231 24.3111 41.2657 21.3333 46.7306 19.2C52.1955 17.0667 57.952 16 64 16C70.048 16 75.7813 17.0667 81.2 19.2C86.6186 21.3333 91.4631 24.2898 95.7333 28.0693C100.004 31.8489 103.515 36.3147 106.267 41.4667C109.019 46.6187 110.796 52.2187 111.6 58.2667L112 65.2C113.689 66 115.001 67.2 115.936 68.8C116.871 70.4 117.337 72.0889 117.333 73.8667V86.1333C117.333 87.9111 116.868 89.6 115.936 91.2C115.004 92.8 113.692 94 112 94.8V101.333C112 104.267 110.956 106.779 108.869 108.869C106.782 110.96 104.27 112.004 101.333 112H64ZM48 74.6667C46.4888 74.6667 45.2231 74.1547 44.2026 73.1307C43.1822 72.1067 42.6702 70.8409 42.6666 69.3333C42.6631 67.8258 43.1751 66.56 44.2026 65.536C45.2302 64.512 46.496 64 48 64C49.504 64 50.7715 64.512 51.8026 65.536C52.8337 66.56 53.344 67.8258 53.3333 69.3333C53.3226 70.8409 52.8106 72.1084 51.7973 73.136C50.784 74.1636 49.5182 74.6738 48 74.6667ZM80 74.6667C78.4889 74.6667 77.2231 74.1547 76.2026 73.1307C75.1822 72.1067 74.6702 70.8409 74.6666 69.3333C74.6631 67.8258 75.1751 66.56 76.2026 65.536C77.2302 64.512 78.496 64 80 64C81.504 64 82.7715 64.512 83.8026 65.536C84.8337 66.56 85.344 67.8258 85.3333 69.3333C85.3226 70.8409 84.8106 72.1084 83.7973 73.136C82.784 74.1636 81.5182 74.6738 80 74.6667ZM32.1333 66.4C31.5111 56.9778 34.3555 48.8889 40.6666 42.1333C46.9777 35.3778 54.8444 32 64.2666 32C72.1777 32 79.1342 34.5102 85.136 39.5307C91.1377 44.5511 94.7591 50.976 96 58.8053C87.9111 58.7129 80.4675 56.5333 73.6693 52.2667C66.8711 48 61.648 42.2222 58 34.9333C56.5777 42.0444 53.5786 48.3787 49.0026 53.936C44.4266 59.4933 38.8035 63.648 32.1333 66.4Z" fill="#0B2A46"/>
</svg>
